<svg id="visual" viewBox="0 0 1920 1080" width="1920" height="1080" xmlns="http://www.w3.org/2000/svg" xmlns:xlink="http://www.w3.org/1999/xlink" version="1.1"><g transform="translate(2037.353756195234 74.12201702666846)"><path d="M743 -881.5C946.9 -874.6 1085 -636 1156.2 -383.5C1227.5 -131 1231.9 135.3 1130.7 342.8C1029.4 550.2 822.4 698.6 616.3 803.8C410.3 909 205.1 971 19.8 943.8C-165.6 916.5 -331.1 800.1 -491.5 680C-651.9 560 -807.2 436.4 -1002.6 232C-1198 27.7 -1433.6 -257.3 -1442.8 -543C-1452.1 -828.6 -1235.1 -1114.9 -956.9 -1097.7C-678.7 -1080.4 -339.3 -759.6 -34.9 -711.6C269.6 -663.6 539.2 -888.4 743 -881.5" fill="#ffd5d5"></path></g></svg>